<?xml version="1.0" standalone="no"?>
<!DOCTYPE svg PUBLIC "-//W3C//DTD SVG 20010904//EN"
 "http://www.w3.org/TR/2001/REC-SVG-20010904/DTD/svg10.dtd">
<svg version="1.0" xmlns="http://www.w3.org/2000/svg"
 width="1214.000000pt" height="1214.000000pt" viewBox="0 0 1214.000000 1214.000000"
 preserveAspectRatio="xMidYMid meet">
<metadata>
Created by potrace 1.14, written by Peter Selinger 2001-2017
</metadata>
<g transform="translate(0.000000,1214.000000) scale(0.100000,-0.100000)"
fill="#000000" stroke="none">
<path d="M0 11914 l0 -225 173 7 c111 4 216 3 292 -5 240 -24 322 -31 410 -35
50 -3 113 -9 140 -15 148 -29 404 -57 431 -47 9 4 22 2 29 -4 7 -6 42 -13 77
-15 34 -2 99 -9 143 -16 99 -14 95 -14 127 -6 15 4 30 3 33 -3 3 -5 24 -10 46
-10 21 0 39 -4 39 -9 0 -9 49 -17 150 -26 30 -3 75 -7 100 -10 25 -3 80 -7
122 -9 43 -3 83 -8 89 -12 7 -4 37 -13 68 -20 50 -11 134 -36 216 -66 17 -6
59 -18 95 -28 36 -9 82 -25 102 -34 20 -10 41 -15 46 -12 5 3 39 -5 75 -18 75
-26 161 -87 196 -138 13 -19 37 -40 53 -47 53 -24 226 -208 305 -326 14 -22
34 -51 43 -65 10 -14 21 -37 25 -50 4 -14 13 -32 20 -40 7 -8 27 -42 44 -75
17 -33 45 -85 61 -115 17 -30 35 -70 41 -90 7 -19 15 -39 19 -45 5 -5 11 -28
15 -50 4 -22 13 -47 20 -55 13 -15 30 -69 27 -83 -3 -11 20 -100 28 -112 4 -5
11 -28 15 -50 4 -22 10 -44 15 -50 4 -5 10 -23 13 -40 2 -16 15 -66 27 -110
46 -169 89 -406 94 -529 3 -66 14 -170 24 -231 11 -60 23 -153 27 -205 4 -52
10 -99 15 -105 4 -5 10 -55 13 -110 4 -55 11 -138 17 -185 5 -47 12 -121 15
-165 3 -44 12 -120 20 -170 13 -86 31 -311 27 -328 -2 -5 2 -34 7 -65 12 -67
15 -453 7 -767 -4 -121 -8 -294 -11 -385 -4 -161 -12 -282 -21 -327 -3 -15
-12 -23 -25 -23 -23 0 -79 -27 -79 -38 0 -4 -29 -22 -64 -40 -35 -18 -74 -43
-88 -56 -13 -14 -48 -37 -78 -53 -74 -38 -99 -61 -193 -178 -44 -55 -86 -103
-93 -108 -7 -4 -20 -30 -29 -57 -12 -36 -22 -50 -35 -50 -19 0 -46 -33 -67
-80 -6 -14 -23 -51 -37 -82 -14 -32 -31 -79 -37 -105 -7 -27 -15 -52 -19 -58
-5 -5 -11 -36 -15 -68 -4 -31 -21 -94 -37 -140 -46 -128 -50 -152 -37 -220 6
-34 16 -73 24 -87 7 -14 16 -52 20 -85 6 -56 5 -63 -19 -88 -25 -27 -29 -28
-84 -21 -31 4 -61 13 -67 20 -11 14 -90 44 -117 44 -10 0 -18 5 -18 10 0 6
-12 10 -26 10 -14 0 -39 10 -55 23 -16 12 -42 32 -57 44 -56 43 -63 192 -12
244 8 8 34 21 57 29 24 7 43 19 43 27 0 7 9 13 20 13 11 0 20 6 20 14 0 8 14
28 30 46 17 18 30 38 30 46 0 8 5 14 11 14 6 0 9 6 6 14 -6 16 16 40 26 29 4
-3 7 6 7 21 0 15 9 36 20 48 11 12 20 29 20 37 0 9 7 35 15 59 16 46 37 162
36 200 -1 13 3 41 8 64 7 29 5 68 -5 132 -9 50 -13 108 -10 129 4 20 2 37 -3
37 -5 0 -11 8 -14 18 -12 37 -64 108 -106 146 -14 11 -35 30 -47 42 -27 26
-82 52 -126 60 -18 4 -38 11 -45 16 -7 6 -26 7 -43 3 -18 -4 -30 -3 -30 4 0 6
-12 10 -27 9 -65 -2 -287 13 -302 21 -9 5 -23 20 -30 33 -11 21 -9 30 13 71
13 26 41 69 60 96 20 27 36 56 36 64 0 9 5 19 10 22 6 3 10 16 10 28 0 13 9
41 20 62 12 22 23 56 25 75 3 19 14 76 25 125 36 160 35 488 -1 511 -5 3 -9
15 -9 27 0 43 -65 197 -100 237 -12 14 -38 46 -58 72 -20 27 -39 48 -42 48 -9
0 -134 81 -145 94 -26 31 -193 96 -240 94 -11 0 -77 3 -147 7 -100 6 -131 5
-144 -6 -10 -8 -18 -9 -22 -2 -4 5 -17 12 -30 16 -36 9 -225 -14 -240 -29 -7
-8 -20 -14 -29 -14 -21 0 -82 -29 -119 -56 -30 -22 -31 -22 -61 -4 -29 17 -30
20 -27 81 2 44 7 67 18 75 9 6 16 14 16 19 0 4 9 18 20 32 30 38 41 94 46 222
3 64 5 123 6 131 4 77 -6 299 -14 319 -6 15 -10 60 -9 101 1 58 -3 84 -19 115
-11 21 -20 45 -20 53 0 7 -11 37 -24 65 -20 45 -48 128 -50 149 -1 4 -7 13
-13 20 -7 6 -13 20 -13 30 0 10 -4 18 -9 18 -5 0 -12 10 -16 23 -9 32 -59 131
-68 136 -19 8 -57 53 -57 67 0 42 -75 138 -116 148 -13 4 -24 11 -24 16 0 6
-6 10 -13 10 -7 0 -42 20 -77 45 -35 25 -69 45 -76 45 -6 0 -14 6 -17 14 -3 7
-36 25 -74 40 -37 15 -88 38 -112 52 -24 13 -72 29 -107 34 -35 6 -74 14 -86
20 -28 11 -187 30 -251 30 l-47 0 0 -1439 0 -1438 53 4 c78 6 149 22 167 37 8
7 40 19 70 25 30 7 64 16 75 21 37 17 210 47 255 45 25 -2 57 -7 72 -13 24
-10 27 -16 33 -89 4 -43 15 -100 25 -128 9 -27 21 -81 24 -120 17 -176 66
-389 96 -417 10 -10 22 -28 26 -40 16 -50 117 -133 234 -189 182 -89 212 -97
405 -114 33 -3 78 -8 100 -11 22 -3 102 -6 177 -7 76 -1 141 -6 146 -12 6 -5
13 -24 17 -42 6 -29 4 -32 -24 -38 -27 -6 -30 -10 -25 -31 4 -14 2 -24 -5 -24
-12 0 -51 -80 -51 -105 0 -8 -7 -18 -16 -22 -8 -3 -13 -12 -10 -20 4 -8 -2
-31 -13 -52 -30 -57 -44 -115 -35 -142 10 -30 6 -62 -10 -71 -15 -10 -66 -10
-66 0 0 4 -16 16 -35 26 -19 11 -35 25 -35 33 0 9 -7 12 -24 7 -21 -5 -81 17
-96 35 -13 16 -52 30 -104 36 -31 4 -59 11 -62 16 -3 5 -13 9 -23 9 -9 0 -22
5 -29 12 -6 6 -18 13 -26 14 -19 3 -156 72 -176 89 -8 7 -25 16 -38 20 -12 3
-52 24 -88 46 -36 22 -68 38 -71 36 -5 -6 -46 10 -128 48 -27 13 -62 28 -78
34 -15 6 -27 15 -27 21 0 5 -10 10 -22 10 -11 0 -35 11 -52 23 -18 14 -51 26
-76 29 -34 4 -54 13 -77 37 -17 17 -42 31 -55 31 -13 0 -31 9 -41 20 -9 11
-27 20 -39 20 -37 0 -103 24 -123 43 -19 20 -57 38 -90 42 -11 2 -39 7 -62 10
l-43 8 0 -554 0 -554 118 -64 c64 -36 131 -72 147 -80 17 -9 32 -19 33 -23 2
-5 8 -8 12 -8 5 0 89 -53 187 -118 98 -65 232 -151 298 -191 171 -103 212
-129 279 -174 93 -62 254 -157 330 -195 39 -19 88 -46 110 -61 23 -14 59 -34
81 -43 22 -9 36 -17 31 -17 -12 -1 37 -46 58 -54 20 -8 22 -84 3 -112 -8 -11
-20 -42 -27 -70 -7 -27 -21 -66 -32 -85 -10 -19 -52 -114 -94 -210 -42 -96
-85 -186 -95 -199 -11 -13 -19 -28 -19 -33 0 -26 -57 -87 -85 -92 -17 -4 -39
-15 -48 -27 -11 -13 -25 -18 -35 -14 -9 3 -70 17 -135 31 -65 14 -196 45 -290
70 -95 24 -260 67 -367 94 -170 42 -390 100 -442 116 -17 5 -18 -14 -18 -310
0 -353 -8 -320 80 -330 127 -14 404 -60 495 -82 67 -17 241 -78 283 -100 15
-7 30 -14 34 -14 4 0 53 -27 109 -60 55 -33 103 -60 105 -60 13 0 236 -164
278 -204 12 -11 44 -42 72 -67 124 -117 276 -306 331 -411 14 -27 30 -51 35
-54 9 -6 136 -261 169 -340 9 -22 24 -57 34 -79 24 -53 92 -263 111 -344 9
-36 20 -100 24 -141 5 -41 15 -104 23 -140 25 -112 49 -252 58 -335 5 -44 13
-105 19 -135 6 -30 19 -113 30 -185 10 -72 21 -138 25 -147 7 -17 36 -18 416
-18 354 0 410 2 415 15 11 28 100 85 133 85 20 0 31 -5 31 -14 0 -7 20 -30 44
-50 40 -33 50 -36 107 -36 l62 0 -114 113 c-141 138 -168 168 -209 237 -19 30
-39 62 -46 70 -22 28 -109 184 -161 292 -48 99 -95 227 -123 338 -6 25 -16 61
-22 80 -20 62 -15 121 13 165 27 42 53 53 164 75 75 14 170 44 266 84 83 35
240 62 276 49 17 -7 17 3 -7 83 -61 207 -69 254 -98 594 -5 52 -10 210 -11
350 -2 253 11 417 50 620 68 351 227 783 402 1092 103 182 154 269 187 318 21
30 57 84 81 120 120 183 311 391 480 522 72 57 107 84 129 98 12 8 34 25 48
38 111 97 191 141 432 235 145 57 401 131 545 156 131 23 447 48 720 57 l190
6 34 -26 c19 -14 42 -26 50 -26 31 0 69 -44 80 -93 11 -47 7 -630 -5 -687 -3
-14 -24 -41 -46 -61 l-41 -36 -201 -6 c-292 -9 -425 -31 -671 -111 -112 -37
-209 -83 -357 -170 -102 -60 -112 -68 -278 -216 -204 -181 -219 -201 -365
-488 -52 -99 -53 -118 -7 -86 12 8 31 13 42 9 10 -3 27 -2 37 3 28 15 180 -12
440 -78 130 -34 240 -63 246 -67 5 -3 23 -9 41 -14 17 -4 74 -20 126 -34 52
-15 128 -35 168 -46 41 -10 95 -26 120 -34 25 -9 118 -29 205 -46 88 -16 172
-36 188 -45 44 -22 62 -57 55 -101 -15 -87 -18 -272 -6 -377 13 -125 27 -162
105 -285 30 -48 55 -92 55 -98 0 -6 12 -25 26 -42 14 -17 28 -48 31 -69 5 -35
0 -44 -55 -110 -54 -64 -225 -252 -337 -368 -22 -23 -65 -70 -95 -104 -151
-172 -574 -582 -632 -611 -21 -11 -38 -23 -37 -27 0 -6 50 -32 149 -75 67 -30
226 -76 330 -97 58 -11 137 -27 175 -35 39 -8 115 -22 170 -30 115 -17 228
-42 267 -59 76 -33 100 -118 153 -541 15 -119 24 -367 15 -385 -10 -19 -7 -20
58 -20 l69 0 6 165 c4 93 11 175 18 187 20 40 52 68 76 68 13 0 32 5 43 12 23
14 184 -3 247 -26 21 -8 63 -21 93 -30 166 -50 363 -172 518 -321 l57 -55
2033 0 2032 0 0 690 c0 558 -2 690 -13 690 -15 0 -80 67 -90 93 -3 9 -16 17
-27 17 -12 0 -20 7 -20 16 0 9 -10 29 -22 44 -47 59 -58 74 -58 86 0 7 -11 22
-25 35 -13 13 -25 34 -25 47 0 13 -4 21 -10 17 -5 -3 -18 12 -29 34 -12 22
-25 42 -31 46 -5 3 -10 15 -10 26 0 10 -4 19 -9 19 -18 0 -83 131 -78 156 2
13 0 24 -4 24 -5 0 -9 -5 -9 -11 0 -5 -5 -7 -11 -3 -6 3 -9 20 -7 36 3 20 1
27 -8 24 -16 -6 -27 21 -12 30 7 5 3 10 -11 16 -12 4 -19 13 -16 18 4 6 2 17
-4 24 -6 7 -9 21 -5 30 4 9 1 16 -6 16 -9 0 -11 11 -7 37 4 25 3 33 -3 23 -15
-23 -22 -6 -23 59 -1 33 -5 54 -9 48 -8 -14 -28 34 -28 68 0 17 4 23 14 19 8
-3 17 -1 21 5 10 18 25 12 25 -9 0 -11 5 -20 11 -20 7 0 9 8 4 22 -3 13 -7 28
-7 34 -1 8 -13 9 -37 3 -19 -4 -36 -7 -37 -6 -8 12 -11 68 -4 72 15 9 12 25
-5 25 -11 0 -15 13 -15 54 0 30 -4 57 -9 60 -13 9 -1 46 15 46 8 0 14 8 14 17
0 13 -3 14 -12 5 -20 -20 -25 -14 -23 33 1 32 7 49 21 59 10 8 16 18 11 22 -4
4 -13 2 -19 -4 -35 -35 -37 2 -3 42 29 34 30 37 10 30 -15 -6 -16 -2 -19 51
-2 27 15 66 25 59 5 -3 9 0 9 5 0 6 -7 11 -15 11 -18 0 -20 21 -3 38 8 8 8 15
-2 26 -10 13 -9 17 4 22 12 5 16 17 14 43 -2 42 7 61 28 61 16 0 19 -36 4 -45
-16 -10 8 -45 30 -45 23 0 27 15 5 24 -8 3 -15 10 -15 16 0 5 7 10 15 10 8 0
15 9 15 20 0 11 -7 20 -15 20 -8 0 -15 5 -15 10 0 6 8 10 17 8 10 -2 19 4 21
14 4 19 -23 26 -30 9 -1 -5 -15 -13 -30 -16 -22 -6 -28 -4 -28 8 0 9 9 19 20
22 11 3 20 13 20 20 0 9 -6 12 -15 9 -18 -7 -21 26 -4 43 6 6 11 17 13 24 6
37 18 57 36 62 26 7 26 27 0 27 -34 0 -24 34 14 48 19 7 37 19 39 27 5 11 0
12 -24 3 -35 -12 -44 -7 -31 19 6 10 15 37 21 60 7 24 16 43 20 43 5 0 7 9 4
19 -6 24 13 61 32 61 8 0 15 5 15 10 0 6 -7 10 -15 10 -22 0 -18 17 10 42 28
25 33 40 9 31 -26 -10 -11 20 17 34 13 7 18 13 11 13 -23 0 -8 34 18 40 32 7
40 40 11 40 -12 0 -21 2 -21 3 0 2 18 41 40 86 22 45 40 85 40 90 0 4 9 16 20
26 11 10 25 35 32 56 12 41 37 69 80 91 19 11 24 18 17 29 -8 12 -10 12 -18
-1 -6 -8 -13 -11 -16 -8 -4 4 0 17 9 30 9 12 16 18 16 13 0 -5 7 1 16 13 10
14 22 21 31 18 11 -5 13 -2 9 10 -3 8 -6 18 -6 21 0 3 -7 0 -15 -7 -29 -24
-28 0 2 27 16 15 39 49 50 74 12 26 28 53 35 60 7 8 28 35 46 61 31 45 32 50
32 147 0 85 -2 99 -15 95 -8 -4 -15 -16 -15 -28 0 -11 -18 -41 -40 -64 -22
-24 -40 -49 -40 -54 0 -6 -12 -27 -27 -47 -44 -57 -113 -162 -113 -171 0 -13
-53 -90 -62 -90 -4 0 -8 -8 -8 -18 0 -22 -56 -112 -69 -112 -6 0 -8 -6 -5 -14
3 -8 1 -17 -5 -21 -6 -3 -11 -17 -11 -31 0 -14 -6 -27 -13 -30 -8 -3 -20 -20
-27 -39 -8 -19 -18 -35 -23 -35 -4 0 -5 -9 -2 -21 4 -12 1 -27 -8 -37 -9 -9
-25 -48 -37 -87 -11 -38 -25 -77 -31 -85 -5 -8 -12 -23 -15 -33 -4 -9 -10 -17
-15 -17 -5 0 -6 -6 -3 -13 3 -8 -2 -20 -11 -27 -8 -7 -15 -24 -15 -39 0 -14
-9 -39 -20 -56 -11 -16 -20 -40 -20 -52 0 -31 -10 -53 -24 -53 -8 0 -11 -10
-8 -29 2 -16 -1 -32 -7 -35 -7 -5 -8 -13 -2 -24 6 -12 4 -29 -8 -53 -18 -36
-21 -49 -22 -106 -1 -17 -8 -40 -18 -50 -9 -11 -17 -40 -19 -73 -2 -30 -8 -63
-14 -73 -5 -10 -11 -35 -13 -55 -2 -21 -6 -55 -9 -77 -4 -22 -8 -58 -10 -80
-2 -22 -8 -51 -14 -65 -6 -16 -6 -29 0 -37 5 -7 7 -17 3 -23 -3 -6 -7 -65 -7
-133 0 -67 -4 -127 -10 -134 -5 -7 -6 -18 -1 -25 11 -18 11 -212 0 -219 -15
-11 2 -29 21 -22 15 6 16 5 3 -13 -8 -10 -26 -31 -40 -46 l-25 -28 27 0 c15 0
27 -4 27 -10 0 -5 -4 -10 -10 -10 -5 0 -10 -7 -10 -15 0 -16 -43 -90 -66 -112
-15 -15 -44 -17 -44 -4 0 5 9 13 21 16 34 11 7 26 -28 16 -37 -11 -113 -3
-113 11 0 6 -9 8 -20 5 -24 -6 -36 9 -21 27 9 11 6 15 -13 20 -18 4 -23 11
-19 26 6 23 -15 27 -36 8 -10 -11 -11 -8 -6 15 6 21 4 27 -8 27 -10 0 -17 -11
-19 -32 l-3 -32 -15 28 c-14 26 -13 29 8 46 33 27 27 45 -7 21 -21 -15 -30
-18 -33 -9 -3 7 1 19 9 26 7 7 13 21 13 29 0 14 -2 14 -19 -1 -22 -20 -40 -4
-22 18 9 10 7 15 -7 18 -15 4 -21 19 -26 69 -14 123 -16 198 -6 204 8 5 8 11
0 20 -8 9 -7 17 5 28 19 19 19 27 0 27 -10 0 -13 8 -10 28 3 15 12 65 19 112
24 141 56 237 56 167 0 -15 -5 -27 -11 -27 -5 0 -7 -5 -4 -10 12 -20 25 2 25
41 0 24 -4 38 -10 34 -16 -10 0 77 19 105 10 14 20 33 24 43 3 9 14 17 22 17
9 0 13 5 10 10 -5 8 -11 7 -21 -1 -11 -9 -14 -8 -14 4 0 28 23 67 39 67 12 0
13 2 3 9 -11 6 -10 14 2 42 8 19 17 45 20 59 3 14 15 35 26 48 12 12 18 27 15
33 -4 5 3 30 14 54 12 25 21 51 21 59 0 8 7 22 17 31 9 9 17 31 19 48 1 17 8
36 16 41 8 6 13 16 11 23 -5 15 25 73 38 73 6 0 7 5 4 11 -4 6 1 32 10 57 32
88 86 227 96 244 5 10 9 26 9 36 0 9 11 51 24 92 13 41 32 111 41 155 9 44 28
123 41 176 13 52 28 115 33 140 15 74 43 173 52 184 4 6 8 20 7 30 -2 33 22
105 41 124 9 9 28 25 40 33 21 15 22 18 8 32 -12 12 -17 13 -21 3 -3 -6 -4 1
-1 16 4 19 2 26 -5 22 -11 -7 -13 5 -4 29 3 8 12 12 21 9 11 -4 14 -2 11 8 -3
8 -11 13 -17 11 -18 -3 -13 29 7 44 16 13 16 15 0 27 -15 12 -16 16 -4 32 10
13 12 37 9 76 -5 52 -3 60 21 82 26 25 26 40 -1 30 -25 -10 1 31 39 62 30 24
31 26 8 19 -14 -3 -28 -12 -32 -18 -14 -22 -21 5 -7 31 7 16 15 31 17 36 2 4
-3 4 -12 1 -10 -4 -16 -1 -16 8 0 14 23 37 56 56 17 10 16 11 -8 12 -16 0 -28
-4 -28 -10 0 -5 -4 -10 -10 -10 -5 0 -10 6 -10 14 0 20 61 47 77 35 13 -11 33
-4 33 12 0 5 -6 9 -12 9 -7 0 -25 7 -40 14 -16 8 -28 11 -28 5 0 -5 -5 -9 -12
-9 -6 0 -2 10 10 23 12 13 22 29 22 35 0 10 13 14 36 11 18 -2 22 27 6 39 -14
11 -15 14 -2 22 20 13 5 24 -16 12 -13 -7 -28 -5 -52 6 l-34 16 3 86 c1 47 -2
93 -6 103 -4 10 -3 23 3 29 7 7 7 17 2 27 -5 9 -21 81 -35 161 -14 80 -31 163
-37 185 -6 22 -12 42 -13 45 0 3 -6 15 -13 27 -7 12 -11 26 -11 30 3 11 -15
52 -72 169 -27 56 -49 106 -49 113 0 6 -3 11 -8 11 -4 0 -16 17 -27 38 -11 20
-25 41 -32 45 -7 4 -13 14 -13 22 0 7 -11 27 -25 43 -14 17 -25 35 -25 40 0 6
-20 32 -45 59 -25 26 -45 55 -45 65 0 10 -4 18 -9 18 -11 0 -161 151 -161 162
0 3 -9 10 -20 13 -11 3 -20 10 -20 14 0 12 -129 105 -207 149 -111 62 -189 97
-268 121 -66 21 -105 41 -105 56 0 7 -4 15 -10 17 -13 4 -21 77 -11 97 22 41
62 566 55 731 -11 282 -66 615 -121 740 -15 34 -65 135 -87 175 -6 11 -23 36
-38 56 -16 20 -28 42 -28 48 0 6 -4 11 -10 11 -5 0 -10 9 -10 19 0 13 -8 21
-22 23 -16 2 -22 9 -20 21 2 11 -4 17 -18 17 -11 0 -20 4 -20 9 0 14 -99 112
-150 149 -25 18 -72 52 -105 77 -50 37 -137 88 -217 127 -10 4 -27 13 -38 18
-11 6 -28 10 -37 10 -10 0 -38 11 -62 25 -51 29 -51 29 -51 10 0 -19 -14 -19
-30 0 -9 11 -22 14 -41 10 -33 -7 -112 12 -104 25 4 6 1 10 -4 10 -6 0 -11 -4
-11 -10 0 -5 -9 -10 -19 -10 -11 0 -23 5 -26 10 -3 6 -17 10 -31 10 -14 0 -23
4 -19 9 10 18 -14 22 -38 7 -20 -13 -26 -14 -50 -1 -15 8 -34 12 -42 8 -8 -3
-15 0 -15 7 0 8 -8 10 -22 5 -52 -16 -160 -24 -178 -13 -14 9 -22 8 -35 -5
-11 -12 -36 -18 -78 -19 -101 -3 -121 -5 -140 -13 -9 -4 -23 -5 -31 -2 -8 3
-29 2 -47 -3 -21 -6 -37 -6 -45 1 -8 7 -14 7 -19 -1 -3 -5 -17 -10 -30 -10
-13 0 -27 -5 -31 -11 -3 -6 -19 -9 -35 -5 -15 3 -31 2 -33 -3 -3 -5 -27 -12
-53 -15 -43 -6 -107 -24 -253 -71 -25 -8 -58 -17 -73 -19 -16 -3 -34 -9 -40
-13 -7 -5 -30 -15 -52 -22 -22 -7 -49 -16 -60 -21 -11 -5 -63 -23 -115 -41
-52 -17 -117 -44 -145 -59 -27 -15 -62 -30 -77 -34 -15 -3 -33 -13 -42 -21 -8
-8 -20 -15 -27 -15 -6 0 -44 -18 -83 -39 -39 -21 -82 -42 -96 -46 -23 -7 -51
-22 -199 -110 -78 -46 -128 -48 -159 -5 -12 16 -22 37 -22 45 0 30 61 103 124
149 34 25 72 59 84 75 12 17 46 46 75 66 28 19 81 56 117 81 60 43 348 189
465 236 28 11 61 24 75 30 65 26 225 78 315 102 55 15 122 34 149 42 26 8 55
14 64 14 8 0 38 6 66 14 88 25 380 87 394 84 4 -1 36 2 72 6 153 16 391 23
410 11 4 -2 72 -14 151 -25 175 -25 220 -33 374 -71 66 -16 128 -29 137 -29 9
0 23 -6 30 -12 7 -7 29 -14 48 -16 19 -1 37 -7 38 -12 2 -6 10 -10 18 -10 8 0
31 -7 52 -17 20 -9 41 -15 46 -14 4 1 15 -4 23 -11 8 -7 22 -13 30 -14 8 -1
29 -9 46 -17 18 -8 55 -25 82 -37 28 -13 52 -26 55 -30 9 -12 72 -40 92 -40
10 0 18 -4 18 -9 0 -5 9 -13 20 -16 11 -3 20 -13 20 -21 0 -8 6 -14 13 -14 8
0 28 -7 46 -16 32 -16 32 -17 14 -37 -17 -20 -17 -20 1 -10 20 11 56 6 56 -8
0 -5 9 -9 20 -9 11 0 20 -6 20 -14 0 -8 12 -17 26 -20 18 -5 24 -12 20 -22 -5
-12 -1 -14 15 -9 15 5 22 2 26 -14 3 -12 13 -21 24 -21 12 0 19 -7 19 -20 0
-12 5 -17 13 -14 8 3 37 -17 66 -46 28 -27 58 -50 66 -50 8 0 15 -6 15 -12 0
-15 43 -58 58 -58 6 0 8 -9 5 -20 -4 -16 -2 -19 13 -13 31 11 33 24 13 62 -10
20 -19 43 -19 53 0 9 -5 20 -10 23 -6 3 -10 14 -10 24 0 10 -6 24 -14 30 -8 7
-18 27 -21 44 -4 18 -13 39 -21 47 -7 9 -25 40 -40 70 -42 89 -68 135 -91 167
-13 17 -23 34 -23 37 0 14 -226 229 -315 301 -33 27 -62 52 -65 55 -3 4 -30
24 -60 45 -30 21 -60 43 -67 49 -32 28 -118 86 -128 86 -4 0 -26 14 -50 30
-24 17 -46 30 -49 30 -3 0 -28 13 -55 29 -28 17 -67 33 -88 37 -21 3 -45 12
-53 19 -8 7 -36 20 -62 30 -27 10 -48 21 -48 25 0 4 -6 7 -12 6 -12 -1 -110
27 -153 44 -11 4 -40 14 -65 21 -25 7 -49 15 -55 18 -5 3 -18 4 -28 3 -10 -2
-24 1 -30 6 -7 5 -32 13 -57 17 -25 4 -67 13 -95 20 -27 7 -79 16 -115 19 -36
4 -87 11 -115 16 -102 19 -235 23 -684 20 -48 0 -59 4 -88 32 -35 34 -42 68
-22 111 13 29 159 105 284 148 199 67 418 118 612 140 161 19 729 15 762 -5 3
-3 60 -12 126 -21 66 -9 124 -20 130 -25 5 -4 37 -10 70 -14 33 -3 69 -8 80
-10 11 -3 74 -17 140 -31 108 -24 244 -60 438 -116 128 -37 202 -58 262 -74
33 -10 69 -21 80 -25 11 -4 55 -18 98 -31 42 -12 77 -26 77 -31 0 -5 11 -6 25
-2 15 4 25 2 25 -5 0 -6 9 -11 19 -11 11 0 22 -4 25 -9 3 -5 26 -14 51 -20 25
-6 45 -16 45 -21 0 -6 7 -10 16 -10 8 0 12 -4 9 -10 -4 -6 5 -10 19 -10 14 0
26 -4 26 -10 0 -5 12 -10 26 -10 19 0 25 -4 20 -15 -4 -11 1 -15 19 -15 29 0
125 -49 132 -67 3 -7 14 -13 24 -13 11 0 22 -7 25 -15 4 -8 12 -15 20 -15 8 0
14 -5 14 -10 0 -6 11 -15 25 -20 14 -5 25 -14 25 -20 0 -6 4 -8 10 -5 5 3 17
-3 27 -15 10 -11 22 -20 29 -20 6 0 24 -13 40 -30 16 -16 32 -30 37 -30 4 0
16 -8 26 -17 11 -10 31 -27 45 -38 14 -11 26 -25 26 -31 0 -6 7 -11 15 -11 13
0 15 80 15 654 l0 653 -4997 0 c-4270 -1 -4995 -3 -4980 -15 10 -7 21 -31 24
-53 13 -94 -80 -173 -232 -199 -118 -20 -699 -23 -760 -4 -22 6 -66 16 -99 21
-58 9 -81 24 -105 67 -25 48 -6 115 40 133 16 7 38 21 50 31 22 19 12 19 -529
19 l-552 0 0 -226z m1390 -174 c0 -5 -4 -10 -10 -10 -5 0 -10 5 -10 10 0 6 5
10 10 10 6 0 10 -4 10 -10z m4098 -611 c68 -31 94 -50 119 -83 65 -88 79 -165
44 -241 -25 -56 -61 -88 -137 -124 -53 -25 -82 -32 -162 -37 -83 -6 -108 -3
-170 15 -122 37 -172 96 -172 202 0 135 91 236 260 290 87 27 121 24 218 -22z
m-236 -600 c29 -13 58 -62 58 -99 0 -74 -58 -122 -156 -128 -55 -4 -70 -1
-108 22 -50 29 -61 51 -51 104 10 53 39 88 88 106 45 17 128 14 169 -5z m1013
-213 c161 -4 203 -15 222 -58 6 -15 6 -90 1 -213 -5 -104 -7 -242 -4 -305 17
-345 15 -322 56 -630 11 -85 21 -173 22 -195 0 -22 4 -44 8 -50 4 -5 11 -30
15 -55 10 -63 43 -148 75 -195 59 -87 173 -192 270 -252 46 -28 264 -96 395
-123 22 -4 92 -20 155 -34 297 -67 386 -86 403 -86 17 0 45 -7 162 -43 222
-69 373 -157 533 -312 128 -125 157 -170 249 -385 32 -76 53 -139 53 -162 0
-20 5 -40 10 -43 6 -3 10 -25 10 -49 0 -23 3 -45 6 -49 10 -10 12 -270 3 -289
-5 -9 -5 -19 -1 -22 5 -3 7 -134 6 -293 -2 -230 -6 -302 -19 -358 -19 -80 -33
-236 -40 -440 -6 -185 -15 -343 -21 -381 -7 -40 27 -79 76 -87 194 -30 452
-127 530 -200 76 -71 205 -247 216 -295 4 -15 15 -36 24 -47 45 -51 60 -377
25 -555 -28 -146 -40 -186 -94 -300 -35 -74 -49 -97 -72 -120 -9 -8 -48 -53
-87 -100 -111 -133 -157 -172 -267 -230 -33 -18 -67 -38 -75 -45 -13 -11 -62
-29 -155 -56 -60 -17 -181 -35 -220 -33 -186 10 -264 30 -386 95 -43 24 -209
150 -209 160 0 5 -7 9 -15 9 -8 0 -15 7 -15 15 0 8 -4 15 -10 15 -8 0 -53 59
-85 111 -44 73 -85 168 -105 244 -20 80 -22 107 -18 245 3 85 10 166 16 180 5
14 16 45 23 70 12 45 48 137 75 197 8 17 14 37 14 45 0 8 4 18 9 23 11 12 121
289 121 305 0 6 7 24 15 41 16 30 41 230 50 404 10 193 17 281 31 405 18 144
26 600 13 710 -5 41 -9 93 -10 115 -8 160 -91 454 -146 517 -8 9 -12 21 -9 27
4 5 -3 15 -14 21 -11 6 -20 16 -20 23 0 7 -15 21 -32 32 -18 10 -47 34 -64 52
-17 18 -36 33 -42 33 -6 0 -12 4 -14 8 -4 9 -90 62 -138 84 -68 32 -142 59
-218 79 -163 44 -221 57 -332 73 -63 9 -151 24 -195 33 -44 9 -105 19 -135 23
-208 29 -503 141 -685 262 -84 56 -208 174 -255 243 -18 28 -36 52 -39 55 -8
7 -44 73 -82 150 -74 153 -110 418 -90 669 6 75 13 174 16 221 3 47 7 117 10
155 8 113 25 415 35 633 10 213 15 236 63 281 33 30 72 38 172 34 44 -1 148
-5 230 -7z m-1764 -221 c64 -3 98 -11 130 -27 84 -44 119 -73 140 -116 41 -83
4 -168 -97 -224 -58 -32 -233 -91 -332 -112 -39 -8 -84 -22 -101 -30 -16 -9
-45 -16 -63 -16 -54 1 -82 34 -113 135 -15 50 -34 97 -41 105 -15 18 -34 117
-34 181 0 46 0 47 48 66 119 50 172 54 463 38z m4114 -80 c106 -9 193 -25 265
-49 83 -27 211 -86 233 -107 8 -8 25 -21 37 -29 75 -50 168 -146 175 -182 4
-15 13 -32 21 -39 8 -6 17 -29 20 -50 4 -22 10 -39 14 -39 14 0 20 -32 26
-128 6 -108 -9 -217 -37 -276 -11 -22 -19 -46 -19 -54 0 -8 -18 -39 -40 -71
-22 -31 -40 -61 -40 -67 0 -5 -25 -36 -55 -69 -30 -32 -55 -61 -55 -65 0 -11
-195 -166 -260 -207 -69 -42 -151 -83 -170 -83 -6 0 -21 -6 -33 -14 -48 -31
-366 -122 -582 -167 -27 -6 -68 -16 -90 -21 -22 -6 -51 -12 -65 -13 -14 -1
-36 -7 -50 -13 -30 -12 -258 -7 -303 6 -17 6 -39 10 -47 10 -22 -1 -192 46
-290 80 -223 77 -346 138 -450 223 -38 31 -85 66 -104 78 -37 23 -59 52 -69
90 -7 30 25 115 64 163 16 20 29 42 29 47 0 13 93 150 153 226 50 64 193 211
212 219 8 3 15 10 15 15 0 23 136 139 315 270 78 57 282 162 403 208 152 57
265 83 452 102 58 6 119 13 135 15 29 4 80 1 190 -9z m840 -14 c176 -47 333
-155 453 -311 50 -66 162 -243 162 -257 0 -4 14 -37 32 -73 42 -87 45 -95 64
-170 53 -210 74 -442 55 -620 -6 -58 -13 -154 -17 -214 -3 -61 -7 -113 -10
-117 -8 -14 -23 -107 -34 -215 -6 -60 -20 -140 -31 -178 -10 -39 -19 -85 -19
-103 0 -37 -59 -160 -89 -187 -12 -11 -21 -23 -21 -29 0 -27 -352 -369 -443
-430 -41 -28 -148 -107 -157 -117 -20 -21 -150 -106 -179 -116 -58 -21 -104
-17 -129 9 -31 33 -40 70 -47 205 -20 347 -127 591 -363 823 -51 49 -171 139
-187 139 -15 0 -112 75 -127 98 -22 33 -22 45 -2 88 20 42 59 60 147 70 187
19 564 156 702 255 41 30 177 179 236 259 33 45 82 143 98 195 7 22 15 47 19
55 3 8 12 42 19 75 12 56 16 81 26 175 2 19 -2 64 -9 100 -6 36 -14 79 -17 95
-7 41 -52 142 -82 181 -14 18 -25 36 -25 40 0 17 -127 125 -166 141 -71 29
-86 101 -29 134 39 23 84 23 170 0z m-4171 -756 c36 -9 78 -20 93 -26 50 -19
132 -79 160 -117 15 -20 30 -39 34 -42 3 -3 12 -23 21 -45 18 -47 16 -147 -6
-198 -31 -75 -160 -176 -276 -216 -66 -23 -279 -43 -317 -30 -10 4 -36 12 -58
19 -40 13 -125 61 -159 89 -66 57 -96 229 -57 331 36 93 171 191 306 223 131
31 170 32 259 12z m938 -1493 c44 -12 162 -67 203 -96 38 -27 64 -43 93 -56
88 -39 132 -63 143 -76 27 -33 16 -104 -29 -199 -24 -49 -49 -103 -56 -120 -7
-16 -22 -50 -33 -75 -18 -40 -83 -206 -172 -438 -17 -45 -34 -96 -38 -112 -3
-17 -10 -33 -14 -36 -5 -3 -9 -15 -9 -26 0 -12 -9 -49 -19 -82 -11 -34 -26
-86 -35 -116 -8 -30 -22 -82 -31 -115 -9 -33 -23 -87 -31 -120 -39 -160 -49
-184 -80 -196 -12 -4 -25 -13 -29 -18 -4 -7 -12 -8 -24 -1 -12 6 -22 5 -29 -2
-8 -8 -15 -8 -25 1 -11 9 -16 9 -20 -2 -5 -13 -112 -34 -219 -42 -32 -2 -63
-7 -69 -10 -5 -4 -34 -11 -62 -16 -29 -4 -72 -12 -97 -18 -25 -5 -72 -15 -105
-21 -33 -7 -98 -28 -145 -47 -125 -51 -429 -203 -475 -238 -22 -17 -53 -38
-68 -48 -16 -10 -36 -25 -45 -33 -9 -9 -56 -44 -103 -79 -47 -35 -155 -131
-240 -214 -85 -83 -158 -154 -162 -158 -40 -39 -147 -159 -147 -165 0 -4 -6
-8 -12 -8 -7 0 -37 -31 -67 -68 -30 -37 -76 -84 -102 -104 -43 -34 -55 -38
-116 -41 -37 -2 -61 -1 -55 1 17 5 15 32 -2 32 -8 0 -18 -4 -21 -10 -7 -12
-65 -13 -81 -2 -6 4 -13 15 -17 25 -3 9 -13 17 -22 17 -8 0 -15 7 -15 15 0 8
-12 29 -28 47 -15 18 -37 51 -49 73 -26 49 -52 174 -48 235 7 115 19 207 31
237 8 18 13 36 12 40 0 5 1 15 5 23 3 8 8 27 11 42 3 15 13 33 21 42 8 8 15
21 15 28 0 8 11 29 25 48 14 19 25 39 25 45 0 19 118 167 178 224 163 153 284
238 463 324 109 53 267 107 311 107 11 0 27 4 36 9 9 5 40 11 67 14 28 3 59 8
70 11 11 2 56 10 100 16 249 37 401 101 554 232 24 21 50 38 57 38 8 0 14 6
14 13 0 7 38 53 85 101 47 48 85 94 85 101 0 7 3 15 8 17 13 6 69 83 76 104 4
12 15 32 26 44 11 13 20 30 20 39 0 15 22 77 51 146 7 17 13 37 14 45 0 8 9
41 19 73 10 33 20 69 21 80 5 28 30 106 60 182 13 33 26 70 30 81 3 12 14 32
25 44 11 13 20 33 20 45 0 12 9 34 20 48 11 14 20 32 20 40 0 25 52 72 94 84
43 12 77 11 138 -5z m4247 -271 c118 -59 157 -83 260 -159 95 -70 281 -257
327 -327 10 -17 23 -34 27 -40 26 -32 73 -121 125 -235 16 -36 48 -103 71
-150 50 -101 83 -192 118 -320 31 -118 41 -196 42 -328 0 -56 3 -107 7 -113
19 -31 -9 -351 -57 -659 -5 -36 -11 -78 -13 -95 -2 -16 -9 -50 -15 -75 -7 -25
-16 -61 -20 -80 -7 -32 -30 -91 -52 -132 -5 -10 -9 -28 -9 -41 0 -13 -4 -27
-10 -33 -5 -5 -12 -23 -14 -39 -9 -63 -79 -289 -112 -362 -8 -17 -14 -37 -14
-45 0 -8 -16 -59 -35 -114 -20 -54 -45 -128 -57 -164 -11 -36 -31 -93 -44
-127 -13 -34 -24 -64 -24 -67 0 -4 -18 -45 -40 -92 -22 -47 -40 -93 -40 -102
0 -21 -38 -124 -51 -137 -5 -5 -9 -17 -9 -27 0 -17 -18 -65 -46 -121 -8 -16
-14 -37 -14 -48 0 -11 -6 -32 -14 -47 -7 -15 -19 -52 -27 -82 -7 -30 -16 -59
-21 -65 -4 -5 -8 -20 -8 -35 -1 -27 -21 -109 -32 -125 -29 -45 -49 -335 -29
-425 23 -106 85 -248 154 -354 9 -13 21 -43 27 -65 5 -23 15 -59 20 -81 9 -35
7 -44 -12 -70 -23 -31 -69 -47 -111 -37 -19 4 -74 26 -212 85 -83 35 -278 133
-328 165 -28 18 -127 70 -219 115 -92 45 -170 87 -173 92 -3 6 -14 10 -25 10
-26 0 -111 46 -148 80 -24 22 -32 37 -32 64 0 61 -18 43 265 272 95 77 320
305 430 435 167 198 230 297 360 562 92 190 100 209 128 317 8 30 29 95 46
144 17 49 29 97 26 107 -4 10 -1 27 4 38 6 10 13 41 15 68 5 58 35 253 41 271
3 7 5 110 5 230 l1 217 -41 125 c-22 69 -40 133 -40 142 0 9 -4 20 -10 23 -5
3 -10 15 -10 27 0 44 -115 255 -189 348 -129 160 -464 436 -626 514 -16 8 -67
37 -113 64 -109 65 -207 87 -340 75 -62 -5 -66 -8 -136 -72 -157 -144 -201
-173 -246 -165 -62 13 -82 77 -73 244 7 129 23 163 114 235 82 65 136 105 143
105 10 0 180 122 284 204 57 44 114 88 126 96 21 14 224 186 426 360 l95 82
52 -5 c34 -4 85 -22 152 -56z m-10389 -141 c0 -5 -4 -10 -10 -10 -5 0 -10 5
-10 10 0 6 5 10 10 10 6 0 10 -4 10 -10z m9611 -1026 c41 -15 81 -32 89 -39 8
-7 56 -32 105 -55 50 -24 92 -46 95 -49 8 -10 69 -51 75 -51 30 0 355 -294
355 -322 0 -5 19 -34 41 -64 53 -69 64 -90 142 -249 147 -299 183 -494 153
-815 -8 -89 -19 -145 -61 -325 -9 -38 -21 -90 -27 -115 -5 -25 -16 -61 -23
-80 -17 -43 -29 -92 -26 -104 1 -4 -4 -18 -12 -30 -8 -11 -17 -38 -21 -59 -4
-21 -13 -40 -21 -43 -8 -3 -17 -26 -21 -51 -3 -24 -13 -47 -20 -50 -8 -3 -14
-13 -14 -22 0 -10 -7 -26 -15 -37 -8 -10 -15 -29 -15 -41 0 -12 -3 -23 -7 -25
-9 -4 -35 -47 -61 -103 -11 -22 -27 -46 -36 -54 -9 -7 -25 -32 -35 -55 -11
-22 -35 -59 -55 -80 -20 -22 -36 -44 -36 -49 0 -5 -19 -32 -42 -60 -24 -28
-50 -60 -58 -70 -42 -51 -224 -227 -241 -232 -10 -4 -19 -11 -19 -17 0 -10
-40 -47 -51 -48 -4 0 -21 -13 -39 -30 -18 -17 -38 -30 -45 -30 -7 0 -15 -7
-19 -15 -3 -8 -12 -15 -20 -15 -7 0 -16 -7 -20 -15 -3 -8 -9 -14 -13 -13 -9 3
-33 -15 -65 -49 -12 -13 -30 -23 -39 -23 -10 0 -22 -6 -26 -13 -9 -16 -63 -52
-63 -43 0 6 -8 0 -43 -30 -28 -24 -93 -64 -104 -64 -7 0 -21 -7 -30 -16 -31
-28 -154 -104 -169 -104 -14 0 -25 -5 -77 -32 -12 -6 -119 -61 -237 -121 -118
-60 -249 -126 -290 -147 -227 -116 -594 -245 -692 -244 -28 0 -55 7 -65 16
-10 9 -70 42 -133 73 -63 32 -137 74 -165 94 -27 20 -68 49 -91 64 -38 26 -97
84 -279 278 -39 41 -78 85 -87 99 -9 14 -26 35 -37 48 -41 42 -110 203 -127
292 -21 111 -21 355 -1 402 8 18 19 46 26 61 6 15 17 27 23 25 7 -2 29 7 49
20 34 21 42 22 110 12 41 -6 88 -15 104 -20 17 -5 50 -14 75 -19 384 -77 408
-81 465 -87 22 -3 67 -11 100 -18 33 -8 87 -20 120 -28 33 -8 116 -37 185 -65
283 -116 573 -170 770 -145 71 9 190 40 235 61 11 5 54 24 95 42 91 40 223
123 322 203 290 235 488 547 643 1015 25 74 45 141 45 149 0 9 4 29 9 46 28
90 41 189 47 346 5 152 3 187 -14 265 -47 214 -152 427 -310 631 -55 71 -183
208 -242 258 -42 37 -158 116 -168 116 -11 0 -48 50 -56 77 -5 17 0 27 24 44
17 13 29 28 27 34 -4 11 37 33 64 34 8 1 49 -11 90 -25z m1919 -354 c0 -5 -8
-10 -17 -10 -15 0 -16 2 -3 10 19 12 20 12 20 0z"/>
<path d="M11918 10883 c7 -3 16 -2 19 1 4 3 -2 6 -13 5 -11 0 -14 -3 -6 -6z"/>
<path d="M12060 10850 c0 -5 7 -10 15 -10 8 0 15 5 15 10 0 6 -7 10 -15 10 -8
0 -15 -4 -15 -10z"/>
<path d="M10935 9781 c-6 -11 9 -23 19 -14 9 9 7 23 -3 23 -6 0 -12 -4 -16 -9z"/>
<path d="M11545 6580 c-3 -5 -1 -10 4 -10 6 0 11 5 11 10 0 6 -2 10 -4 10 -3
0 -8 -4 -11 -10z"/>
<path d="M11670 6479 c0 -5 5 -7 10 -4 6 3 10 8 10 11 0 2 -4 4 -10 4 -5 0
-10 -5 -10 -11z"/>
<path d="M11740 6470 c0 -5 5 -10 10 -10 6 0 10 5 10 10 0 6 -4 10 -10 10 -5
0 -10 -4 -10 -10z"/>
<path d="M11550 6460 c0 -5 5 -10 10 -10 6 0 10 5 10 10 0 6 -4 10 -10 10 -5
0 -10 -4 -10 -10z"/>
<path d="M11633 6445 c-3 -9 -3 -18 -1 -21 3 -3 8 4 11 16 6 23 -1 27 -10 5z"/>
<path d="M11595 6200 c-3 -6 1 -7 9 -4 18 7 21 14 7 14 -6 0 -13 -4 -16 -10z"/>
<path d="M11612 6098 c6 -18 28 -21 28 -4 0 9 -7 16 -16 16 -9 0 -14 -5 -12
-12z"/>
<path d="M11643 6041 c-33 -15 -44 -31 -20 -31 14 0 64 37 57 42 -3 2 -20 -3
-37 -11z"/>
<path d="M11660 5865 c-10 -12 -10 -15 3 -15 19 0 31 16 18 24 -5 3 -14 -1
-21 -9z"/>
<path d="M11670 5749 c0 -5 5 -7 10 -4 6 3 10 8 10 11 0 2 -4 4 -10 4 -5 0
-10 -5 -10 -11z"/>
<path d="M11650 5585 c0 -8 2 -15 4 -15 2 0 6 7 10 15 3 8 1 15 -4 15 -6 0
-10 -7 -10 -15z"/>
<path d="M11595 5499 c-4 -6 -4 -13 -1 -16 3 -4 6 -1 6 5 0 6 6 9 14 6 8 -3
23 -1 33 5 15 9 13 10 -14 11 -17 0 -35 -5 -38 -11z"/>
<path d="M11596 5435 c-3 -9 0 -15 9 -15 8 0 15 7 15 15 0 8 -4 15 -9 15 -5 0
-11 -7 -15 -15z"/>
<path d="M12020 4450 c0 -5 5 -10 11 -10 5 0 7 5 4 10 -3 6 -8 10 -11 10 -2 0
-4 -4 -4 -10z"/>
<path d="M11985 4429 c-10 -15 3 -25 16 -12 7 7 7 13 1 17 -6 3 -14 1 -17 -5z"/>
<path d="M11962 4355 c-13 -7 -19 -16 -14 -19 12 -7 62 13 62 26 0 11 -21 8
-48 -7z"/>
<path d="M12075 4310 c-3 -5 -2 -10 4 -10 5 0 13 5 16 10 3 6 2 10 -4 10 -5 0
-13 -4 -16 -10z"/>
<path d="M12100 4280 c-13 -8 -12 -10 3 -10 9 0 17 5 17 10 0 12 -1 12 -20 0z"/>
<path d="M11900 4239 c0 -5 5 -7 10 -4 6 3 10 8 10 11 0 2 -4 4 -10 4 -5 0
-10 -5 -10 -11z"/>
<path d="M12086 4205 c-11 -8 -16 -18 -12 -22 4 -4 11 -2 15 5 4 7 12 12 17
11 19 -3 34 1 34 11 0 15 -32 12 -54 -5z"/>
<path d="M11826 4191 c-4 -7 -5 -15 -2 -18 9 -9 19 4 14 18 -4 11 -6 11 -12 0z"/>
<path d="M12120 4167 c-8 -7 -24 -24 -35 -37 l-20 -25 23 19 c17 15 25 17 34
8 9 -9 7 -15 -8 -27 -10 -8 -14 -15 -8 -15 17 0 26 -31 14 -46 -6 -7 -10 -18
-9 -26 5 -38 -2 -68 -16 -68 -8 0 -15 -4 -15 -9 0 -5 7 -11 15 -15 23 -8 18
-36 -6 -36 -12 0 -19 -5 -16 -12 2 -7 11 -12 21 -10 22 4 20 -15 -3 -28 -26
-14 -31 -13 -31 5 0 10 -7 15 -17 13 -13 -2 -17 3 -15 17 6 36 -25 -5 -33 -44
-7 -31 -5 -33 14 -28 28 7 27 -6 -4 -29 -14 -10 -25 -22 -25 -26 0 -13 29 -9
37 6 4 7 20 15 36 18 37 7 36 -16 -3 -32 -16 -7 -30 -18 -30 -26 0 -7 -12 -14
-27 -16 -14 -2 -28 -9 -31 -16 -3 -10 3 -11 25 -6 15 4 30 11 31 16 5 11 42
10 42 -2 0 -5 9 -10 20 -10 23 0 27 -25 5 -34 -8 -3 -15 -10 -15 -16 0 -5 7
-10 15 -10 8 0 15 5 15 10 0 6 5 10 10 10 6 0 8 -11 4 -25 -3 -14 -1 -31 5
-39 6 -7 9 -21 5 -29 -3 -9 -1 -24 5 -34 7 -13 10 80 11 325 0 188 -1 342 -2
342 -2 0 -10 -6 -18 -13z m-25 -447 c3 -5 -1 -10 -9 -10 -9 0 -16 5 -16 10 0
6 4 10 9 10 6 0 13 -4 16 -10z"/>
<path d="M11861 4161 c-10 -6 -10 -10 -1 -16 13 -8 24 -1 19 14 -3 6 -10 7
-18 2z"/>
<path d="M11820 4120 c0 -5 7 -10 15 -10 8 0 15 5 15 10 0 6 -7 10 -15 10 -8
0 -15 -4 -15 -10z"/>
<path d="M12040 4090 c0 -5 5 -10 11 -10 5 0 7 5 4 10 -3 6 -8 10 -11 10 -2 0
-4 -4 -4 -10z"/>
<path d="M11787 4079 c7 -7 15 -10 18 -7 3 3 -2 9 -12 12 -14 6 -15 5 -6 -5z"/>
<path d="M11820 4054 c0 -8 5 -12 10 -9 6 3 10 10 10 16 0 5 -4 9 -10 9 -5 0
-10 -7 -10 -16z"/>
<path d="M12034 4036 c-4 -10 -2 -22 4 -28 8 -8 13 -7 18 6 4 10 2 22 -4 28
-8 8 -13 7 -18 -6z"/>
<path d="M11790 4025 c-8 -9 -8 -15 -2 -15 12 0 26 19 19 26 -2 2 -10 -2 -17
-11z"/>
<path d="M12027 3966 c-6 -16 2 -28 14 -20 12 7 11 34 0 34 -5 0 -11 -6 -14
-14z"/>
<path d="M11750 3950 c-23 -17 -23 -19 -7 -26 19 -7 62 28 50 40 -10 9 -16 7
-43 -14z"/>
<path d="M11908 3939 c-10 -5 -18 -17 -18 -26 0 -13 3 -14 12 -5 17 17 48 15
48 -3 0 -8 7 -15 15 -15 22 0 18 19 -7 41 -27 21 -28 22 -50 8z"/>
<path d="M12037 3904 c3 -7 9 -14 14 -14 14 0 10 17 -5 23 -10 4 -13 1 -9 -9z"/>
<path d="M11716 3889 c3 -15 1 -30 -5 -33 -17 -11 -13 -26 4 -20 8 4 12 11 8
17 -4 6 0 8 9 4 17 -6 38 10 38 29 0 7 -8 10 -21 7 -12 -4 -25 0 -30 8 -7 10
-8 6 -3 -12z"/>
<path d="M11880 3850 c0 -5 5 -10 10 -10 6 0 10 5 10 10 0 6 -4 10 -10 10 -5
0 -10 -4 -10 -10z"/>
<path d="M11960 3839 c0 -5 5 -7 10 -4 6 3 10 8 10 11 0 2 -4 4 -10 4 -5 0
-10 -5 -10 -11z"/>
<path d="M11720 3807 c0 -7 -9 -18 -20 -25 -12 -7 -18 -17 -15 -22 4 -6 -1 -7
-11 -3 -12 4 -15 3 -10 -5 11 -18 46 -14 52 6 3 9 10 25 15 34 12 23 11 28 -1
28 -5 0 -10 -6 -10 -13z"/>
<path d="M11678 3713 c-10 -2 -18 -11 -18 -19 0 -8 -4 -13 -9 -10 -10 7 -23
-19 -14 -28 11 -11 73 35 73 55 0 9 -4 10 -32 2z"/>
<path d="M11870 3660 c0 -5 5 -10 10 -10 6 0 10 5 10 10 0 6 -4 10 -10 10 -5
0 -10 -4 -10 -10z"/>
<path d="M12030 3660 c0 -5 5 -10 10 -10 6 0 10 5 10 10 0 6 -4 10 -10 10 -5
0 -10 -4 -10 -10z"/>
<path d="M11660 3631 c0 -12 6 -21 16 -21 9 0 14 7 12 17 -5 25 -28 28 -28 4z"/>
<path d="M12018 3599 c-10 -5 -18 -17 -18 -25 0 -14 2 -14 16 0 8 9 20 16 25
16 5 0 9 5 9 10 0 13 -10 12 -32 -1z"/>
<path d="M11075 3570 c-3 -5 -2 -10 4 -10 5 0 13 5 16 10 3 6 2 10 -4 10 -5 0
-13 -4 -16 -10z"/>
<path d="M11660 3570 c0 -5 -6 -10 -14 -10 -19 0 -30 -32 -14 -41 8 -5 16 -1
21 13 4 12 13 28 19 35 7 9 7 13 -1 13 -6 0 -11 -4 -11 -10z"/>
<path d="M11760 3569 c0 -5 5 -7 10 -4 6 3 10 8 10 11 0 2 -4 4 -10 4 -5 0
-10 -5 -10 -11z"/>
<path d="M11869 3544 c-8 -10 -23 -14 -40 -12 -23 4 -28 0 -33 -25 -7 -35 -2
-44 17 -29 20 17 87 -16 87 -42 0 -11 -3 -16 -6 -13 -4 3 -15 2 -26 -4 -26
-14 -59 9 -34 23 9 5 16 14 16 20 0 9 -3 9 -12 0 -7 -7 -24 -12 -39 -12 -33 0
-45 -15 -47 -59 -2 -31 -1 -33 22 -27 15 4 26 1 29 -6 2 -7 3 -5 2 4 -4 26 7
29 35 8 20 -15 22 -20 11 -34 -11 -13 -11 -16 1 -16 8 0 23 6 33 14 19 14 19
15 1 35 -19 21 -19 22 0 36 10 8 24 15 30 15 17 0 26 43 11 52 -9 6 -9 8 1 8
6 0 12 9 12 20 0 12 -7 20 -16 20 -9 0 -18 9 -21 20 -6 24 -16 25 -34 4z"/>
<path d="M12017 3522 c-38 -19 -28 -26 13 -9 18 8 29 16 24 19 -5 2 -22 -2
-37 -10z"/>
<path d="M11745 3511 c-10 -17 11 -21 31 -6 18 14 18 14 -3 15 -12 0 -24 -4
-28 -9z"/>
<path d="M11627 3493 c-4 -3 -7 -12 -7 -20 0 -17 26 -17 33 1 8 21 -11 35 -26
19z"/>
<path d="M11955 3480 c3 -5 8 -10 11 -10 2 0 4 5 4 10 0 6 -5 10 -11 10 -5 0
-7 -4 -4 -10z"/>
<path d="M12126 3475 c4 -8 8 -15 10 -15 2 0 4 7 4 15 0 8 -4 15 -10 15 -5 0
-7 -7 -4 -15z"/>
<path d="M11586 3444 c-4 -12 -2 -15 9 -10 21 8 19 -24 -2 -40 -17 -12 -17
-14 3 -34 14 -15 24 -18 28 -11 4 6 0 11 -8 11 -23 0 -20 16 5 34 21 14 21 16
5 40 -19 30 -31 33 -40 10z"/>
<path d="M11955 3420 c-3 -5 -3 -15 1 -21 6 -11 23 6 24 24 0 10 -18 9 -25 -3z"/>
<path d="M11710 3410 c0 -5 7 -7 15 -4 8 4 15 8 15 10 0 2 -7 4 -15 4 -8 0
-15 -4 -15 -10z"/>
<path d="M11916 3383 c4 -10 6 -35 5 -55 -1 -21 3 -38 8 -38 13 0 21 27 14 47
-5 12 -2 15 10 10 9 -3 19 -2 22 3 4 6 -3 10 -14 10 -11 0 -22 9 -26 20 -3 11
-11 20 -17 20 -6 0 -7 -7 -2 -17z"/>
<path d="M11745 3330 c-3 -6 1 -13 10 -16 19 -8 30 0 20 15 -8 14 -22 14 -30
1z"/>
<path d="M12000 3330 c0 -5 5 -10 11 -10 5 0 7 5 4 10 -3 6 -8 10 -11 10 -2 0
-4 -4 -4 -10z"/>
<path d="M11000 3319 c0 -5 5 -7 10 -4 6 3 10 8 10 11 0 2 -4 4 -10 4 -5 0
-10 -5 -10 -11z"/>
<path d="M11717 3313 c-4 -3 -7 -11 -7 -17 0 -6 5 -5 12 2 6 6 9 14 7 17 -3 3
-9 2 -12 -2z"/>
<path d="M11860 3292 c0 -4 -13 -13 -29 -20 -33 -14 -47 -40 -31 -56 7 -7 10
-3 10 12 0 15 6 22 20 22 11 0 20 5 20 10 0 6 5 10 10 10 19 0 11 -48 -10 -55
-25 -8 -26 -25 -1 -25 10 0 22 -7 25 -16 3 -8 11 -12 16 -9 7 4 7 11 2 18 -5
7 -9 27 -9 45 0 31 1 32 34 26 42 -8 43 9 1 30 -33 17 -58 21 -58 8z"/>
<path d="M11965 3290 c-3 -5 -1 -10 4 -10 6 0 11 5 11 10 0 6 -2 10 -4 10 -3
0 -8 -4 -11 -10z"/>
<path d="M12005 3270 c3 -5 8 -10 11 -10 2 0 4 5 4 10 0 6 -5 10 -11 10 -5 0
-7 -4 -4 -10z"/>
<path d="M11000 3260 c0 -5 5 -10 10 -10 6 0 10 5 10 10 0 6 -4 10 -10 10 -5
0 -10 -4 -10 -10z"/>
<path d="M11660 3260 c0 -5 7 -10 15 -10 8 0 15 5 15 10 0 6 -7 10 -15 10 -8
0 -15 -4 -15 -10z"/>
<path d="M10970 3244 c0 -8 5 -12 10 -9 6 3 10 10 10 16 0 5 -4 9 -10 9 -5 0
-10 -7 -10 -16z"/>
<path d="M11710 3234 c0 -8 5 -12 10 -9 6 4 8 11 5 16 -9 14 -15 11 -15 -7z"/>
<path d="M12013 3219 c-6 -6 -9 -18 -6 -26 4 -11 8 -10 19 4 22 30 12 47 -13
22z"/>
<path d="M11915 3200 c-3 -5 3 -10 14 -10 11 0 22 -9 26 -21 5 -15 10 -18 18
-10 7 7 5 16 -8 31 -20 22 -40 26 -50 10z"/>
<path d="M11535 3170 c-3 -5 1 -10 9 -10 9 0 16 5 16 10 0 6 -4 10 -9 10 -6 0
-13 -4 -16 -10z"/>
<path d="M12040 3164 c0 -8 5 -12 10 -9 6 3 10 10 10 16 0 5 -4 9 -10 9 -5 0
-10 -7 -10 -16z"/>
<path d="M11670 3135 c0 -8 7 -15 15 -15 8 0 15 -5 15 -11 0 -6 5 -9 11 -7 6
2 9 8 7 13 -2 6 -7 9 -11 7 -4 -1 -10 5 -13 13 -8 19 -24 19 -24 0z"/>
<path d="M12019 3130 l24 -21 -21 -6 c-12 -3 -22 -12 -22 -19 0 -8 -7 -14 -15
-14 -8 0 -19 -9 -25 -19 -14 -27 -13 -31 10 -31 22 0 26 -10 9 -27 -7 -7 -7
-13 -1 -17 5 -3 15 1 22 9 7 8 19 15 27 15 13 0 13 3 3 15 -7 8 -16 12 -21 9
-5 -3 -9 4 -9 15 0 26 35 29 44 4 11 -28 23 0 19 44 -3 26 -11 43 -21 47 -10
3 -24 9 -32 12 -8 3 -4 -4 9 -16z"/>
<path d="M11550 3114 c-13 -33 -13 -34 4 -34 8 0 16 13 18 30 6 37 -9 39 -22
4z"/>
<path d="M11872 3108 c-3 -31 -2 -31 18 -13 15 14 17 21 9 32 -18 20 -25 16
-27 -19z"/>
<path d="M11954 3119 c-9 -15 11 -33 30 -26 9 4 13 13 10 22 -7 17 -30 20 -40
4z"/>
<path d="M10931 3074 c0 -11 3 -14 6 -6 3 7 2 16 -1 19 -3 4 -6 -2 -5 -13z"/>
<path d="M11665 3070 c-3 -5 -1 -10 4 -10 6 0 11 5 11 10 0 6 -2 10 -4 10 -3
0 -8 -4 -11 -10z"/>
<path d="M12091 3064 c0 -11 3 -14 6 -6 3 7 2 16 -1 19 -3 4 -6 -2 -5 -13z"/>
<path d="M11550 3049 c0 -11 4 -18 10 -14 5 3 7 12 3 20 -7 21 -13 19 -13 -6z"/>
<path d="M11875 3049 c-4 -6 -5 -13 -2 -16 7 -7 27 6 27 18 0 12 -17 12 -25
-2z"/>
<path d="M11773 3029 c-25 -9 -30 -19 -10 -19 15 0 43 17 37 23 -3 3 -15 1
-27 -4z"/>
<path d="M12082 3020 c-10 -17 -10 -20 3 -20 8 0 15 2 15 4 0 2 3 11 6 20 9
23 -9 20 -24 -4z"/>
<path d="M11836 3013 c-4 -9 1 -17 14 -20 25 -7 25 -12 3 -29 -17 -12 -17 -13
-1 -19 16 -6 15 -11 -9 -42 l-27 -36 32 8 c26 5 32 3 32 -10 0 -8 8 -19 18
-22 9 -4 26 -15 36 -25 19 -17 19 -18 1 -38 -18 -20 -18 -21 2 -26 13 -4 20
-11 16 -20 -7 -18 11 -18 26 0 9 11 9 16 1 21 -7 4 -9 17 -6 30 4 16 1 25 -10
29 -14 5 -13 10 8 31 26 28 48 32 48 10 0 -8 -5 -15 -12 -15 -6 0 -2 -10 10
-23 12 -13 19 -27 15 -30 -9 -10 20 -8 36 2 11 7 9 13 -8 30 -25 25 -26 31 -7
31 8 0 24 8 37 18 22 19 22 19 3 45 -15 20 -25 24 -44 20 -25 -6 -52 -32 -44
-44 5 -9 -78 -40 -85 -33 -3 4 0 9 7 11 19 7 14 26 -14 52 -20 20 -25 32 -21
56 4 27 1 33 -23 42 -23 9 -30 8 -34 -4z m241 -118 c8 -21 -1 -28 -26 -20 -12
4 -18 12 -14 21 7 19 32 18 40 -1z"/>
<path d="M11670 3004 c0 -8 5 -12 10 -9 6 3 10 10 10 16 0 5 -4 9 -10 9 -5 0
-10 -7 -10 -16z"/>
<path d="M11540 2990 c0 -5 5 -10 10 -10 6 0 10 5 10 10 0 6 -4 10 -10 10 -5
0 -10 -4 -10 -10z"/>
<path d="M11717 2993 c-4 -3 -7 -11 -7 -17 0 -6 5 -5 12 2 6 6 9 14 7 17 -3 3
-9 2 -12 -2z"/>
<path d="M12040 2981 c0 -6 5 -13 10 -16 6 -3 10 1 10 9 0 9 -4 16 -10 16 -5
0 -10 -4 -10 -9z"/>
<path d="M12125 2980 c3 -5 8 -10 11 -10 2 0 4 5 4 10 0 6 -5 10 -11 10 -5 0
-7 -4 -4 -10z"/>
<path d="M12005 2970 c-11 -17 5 -32 21 -19 7 6 11 15 8 20 -7 12 -21 11 -29
-1z"/>
<path d="M11540 2920 c0 -24 15 -27 24 -4 9 22 8 24 -9 24 -8 0 -15 -9 -15
-20z"/>
<path d="M11710 2925 c-8 -9 -8 -15 -2 -15 12 0 26 19 19 26 -2 2 -10 -2 -17
-11z"/>
<path d="M12127 2925 c-4 -8 -2 -17 3 -20 6 -4 10 3 10 14 0 25 -6 27 -13 6z"/>
<path d="M11681 2868 c3 -24 -13 -58 -27 -58 -8 0 -14 -4 -14 -10 0 -17 19
-11 40 13 12 12 27 29 35 38 21 22 19 29 -10 29 -15 0 -25 -5 -24 -12z"/>
<path d="M11531 2849 c-13 -10 -19 -19 -14 -19 13 0 49 27 43 33 -3 3 -16 -3
-29 -14z"/>
<path d="M12108 2853 c-33 -17 -35 -28 -8 -43 15 -8 18 -8 14 3 -3 8 2 22 12
31 22 22 15 26 -18 9z"/>
<path d="M11810 2828 c0 -9 -6 -19 -12 -21 -10 -4 -9 -8 2 -16 11 -8 17 -5 23
11 4 12 3 26 -3 32 -7 7 -10 5 -10 -6z"/>
<path d="M11844 2829 c-4 -7 0 -9 14 -5 13 4 22 1 26 -9 5 -15 36 -22 36 -7 0
7 -47 32 -61 32 -4 0 -11 -5 -15 -11z"/>
<path d="M10840 2820 c0 -5 5 -10 10 -10 6 0 10 5 10 10 0 6 -4 10 -10 10 -5
0 -10 -4 -10 -10z"/>
<path d="M11685 2785 c-19 -15 -24 -24 -15 -24 15 0 60 32 60 43 0 12 -16 5
-45 -19z"/>
<path d="M12131 2794 c0 -11 3 -14 6 -6 3 7 2 16 -1 19 -3 4 -6 -2 -5 -13z"/>
<path d="M12092 2774 c4 -21 22 -23 26 -1 2 10 -3 17 -13 17 -10 0 -15 -6 -13
-16z"/>
<path d="M11845 2770 c-3 -5 -1 -10 4 -10 6 0 11 5 11 10 0 6 -2 10 -4 10 -3
0 -8 -4 -11 -10z"/>
<path d="M11760 2760 c0 -5 5 -10 10 -10 6 0 10 5 10 10 0 6 -4 10 -10 10 -5
0 -10 -4 -10 -10z"/>
<path d="M12050 2743 c0 -10 11 -25 23 -35 22 -15 24 -15 35 3 10 15 9 17 -3
13 -8 -3 -19 3 -27 15 -16 26 -28 27 -28 4z"/>
<path d="M11550 2736 c0 -9 5 -16 10 -16 6 0 10 4 10 9 0 6 -4 13 -10 16 -5 3
-10 -1 -10 -9z"/>
<path d="M11690 2736 c0 -8 -6 -16 -12 -19 -8 -2 -9 -8 -4 -13 5 -5 11 -4 13
4 3 6 11 12 19 12 8 0 14 7 14 15 0 8 -7 15 -15 15 -8 0 -15 -6 -15 -14z"/>
<path d="M11800 2734 c0 -8 5 -12 10 -9 6 3 10 10 10 16 0 5 -4 9 -10 9 -5 0
-10 -7 -10 -16z"/>
<path d="M11885 2740 c-3 -5 1 -10 9 -10 8 0 18 5 21 10 3 6 -1 10 -9 10 -8 0
-18 -4 -21 -10z"/>
<path d="M12131 2734 c0 -11 3 -14 6 -6 3 7 2 16 -1 19 -3 4 -6 -2 -5 -13z"/>
<path d="M11511 2694 c0 -11 3 -14 6 -6 3 7 2 16 -1 19 -3 4 -6 -2 -5 -13z"/>
<path d="M11960 2693 c0 -25 15 -38 25 -22 4 6 0 18 -9 27 -15 15 -16 15 -16
-5z"/>
<path d="M11555 2679 c-4 -6 -5 -12 -2 -15 2 -3 7 2 10 11 7 17 1 20 -8 4z"/>
<path d="M11710 2680 c-13 -8 -12 -10 3 -10 9 0 17 5 17 10 0 12 -1 12 -20 0z"/>
<path d="M11792 2679 c2 -7 10 -15 17 -17 8 -3 12 1 9 9 -2 7 -10 15 -17 17
-8 3 -12 -1 -9 -9z"/>
<path d="M12090 2654 c0 -9 8 -22 17 -29 11 -8 17 -26 17 -49 0 -20 4 -36 8
-36 15 0 9 90 -7 96 -8 4 -15 12 -15 20 0 8 -4 14 -10 14 -5 0 -10 -7 -10 -16z"/>
<path d="M11920 2650 c0 -5 5 -10 11 -10 5 0 7 5 4 10 -3 6 -8 10 -11 10 -2 0
-4 -4 -4 -10z"/>
<path d="M11994 2645 c-4 -8 -12 -15 -20 -15 -8 0 -14 -7 -14 -15 0 -8 7 -15
16 -15 13 0 15 -7 11 -29 -4 -20 -1 -33 12 -45 22 -20 31 -20 31 -1 0 8 -9 15
-20 15 -26 0 -25 3 6 37 26 28 26 28 4 31 -20 3 -20 5 -4 16 9 7 14 18 10 24
-10 17 -26 15 -32 -3z"/>
<path d="M11750 2640 c0 -5 5 -10 10 -10 6 0 10 5 10 10 0 6 -4 10 -10 10 -5
0 -10 -4 -10 -10z"/>
<path d="M11806 2634 c-20 -19 -20 -24 -1 -24 8 0 19 9 25 20 13 24 -2 27 -24
4z"/>
<path d="M11561 2614 c0 -11 3 -14 6 -6 3 7 2 16 -1 19 -3 4 -6 -2 -5 -13z"/>
<path d="M10845 2589 c-4 -6 -5 -13 -2 -16 7 -7 27 6 27 18 0 12 -17 12 -25
-2z"/>
<path d="M11823 2575 c-6 -14 -9 -25 -6 -25 7 0 32 33 33 43 0 16 -16 5 -27
-18z"/>
<path d="M12085 2591 c-6 -11 9 -23 19 -14 9 9 7 23 -3 23 -6 0 -12 -4 -16 -9z"/>
<path d="M11920 2580 c0 -5 5 -10 10 -10 6 0 10 5 10 10 0 6 -4 10 -10 10 -5
0 -10 -4 -10 -10z"/>
<path d="M12050 2555 c-10 -12 -10 -15 4 -15 9 0 16 7 16 15 0 8 -2 15 -4 15
-2 0 -9 -7 -16 -15z"/>
<path d="M11705 2550 c-3 -5 1 -10 9 -10 8 0 18 5 21 10 3 6 -1 10 -9 10 -8 0
-18 -4 -21 -10z"/>
<path d="M11840 2525 c-8 -9 -8 -15 -2 -15 12 0 26 19 19 26 -2 2 -10 -2 -17
-11z"/>
<path d="M10850 2520 c0 -5 5 -10 10 -10 6 0 10 5 10 10 0 6 -4 10 -10 10 -5
0 -10 -4 -10 -10z"/>
<path d="M11716 2502 c-3 -6 -1 -14 5 -17 15 -10 25 3 12 16 -7 7 -13 7 -17 1z"/>
<path d="M12027 2489 c-9 -6 -17 -17 -17 -24 0 -8 -9 -15 -19 -15 -11 0 -23
-5 -26 -11 -13 -21 5 -21 38 0 l35 21 5 -22 c6 -22 6 -22 25 -3 14 15 16 21 5
23 -7 2 -13 10 -13 17 0 20 -13 25 -33 14z"/>
<path d="M12125 2490 c3 -5 8 -10 11 -10 2 0 4 5 4 10 0 6 -5 10 -11 10 -5 0
-7 -4 -4 -10z"/>
<path d="M0 1245 l0 -1245 671 0 672 0 -5 73 c-6 78 -27 176 -87 412 -66 255
-87 322 -204 635 -58 155 -186 421 -266 550 -46 73 -145 209 -161 220 -4 3
-42 51 -84 108 -122 161 -334 366 -481 465 -22 15 -43 27 -47 27 -5 0 -8 -560
-8 -1245z"/>
<path d="M10885 2480 c3 -5 8 -10 11 -10 2 0 4 5 4 10 0 6 -5 10 -11 10 -5 0
-7 -4 -4 -10z"/>
<path d="M11943 2483 c-13 -2 -23 -11 -23 -19 0 -20 14 -18 35 6 10 11 16 19
14 19 -2 -1 -14 -4 -26 -6z"/>
<path d="M10845 2471 c-3 -5 -1 -12 5 -16 5 -3 10 1 10 9 0 18 -6 21 -15 7z"/>
<path d="M11831 2456 c-14 -15 -19 -26 -12 -31 6 -3 11 -2 11 4 0 5 9 13 20
16 11 3 20 13 20 21 0 21 -13 17 -39 -10z"/>
<path d="M11750 2459 c0 -5 5 -7 10 -4 6 3 10 8 10 11 0 2 -4 4 -10 4 -5 0
-10 -5 -10 -11z"/>
<path d="M10885 2440 c-3 -5 -1 -10 4 -10 6 0 11 5 11 10 0 6 -2 10 -4 10 -3
0 -8 -4 -11 -10z"/>
<path d="M11856 2418 c-10 -6 -27 -19 -37 -29 -15 -15 -16 -19 -4 -19 8 0 15
5 15 11 0 5 5 7 11 3 6 -3 8 -17 5 -30 -5 -19 -2 -24 12 -24 22 0 42 19 42 38
0 11 -3 12 -14 3 -10 -8 -16 -9 -21 -1 -3 5 1 13 9 16 17 6 22 29 8 38 -4 2
-16 0 -26 -6z"/>
<path d="M11736 2394 c-9 -8 -14 -20 -11 -25 11 -16 25 -10 25 12 0 11 5 17
10 14 6 -3 10 -1 10 4 0 16 -16 13 -34 -5z"/>
<path d="M11930 2399 c0 -5 5 -7 10 -4 6 3 10 8 10 11 0 2 -4 4 -10 4 -5 0
-10 -5 -10 -11z"/>
<path d="M12005 2400 c-3 -5 -1 -10 4 -10 6 0 11 5 11 10 0 6 -2 10 -4 10 -3
0 -8 -4 -11 -10z"/>
<path d="M12015 2359 c-33 -32 -44 -48 -35 -54 7 -4 16 -2 21 6 11 19 22 5 14
-20 -3 -11 -24 -28 -45 -38 -32 -14 -40 -23 -40 -45 0 -18 -4 -26 -13 -22 -9
3 -13 -6 -13 -30 0 -27 3 -33 13 -25 9 8 14 4 19 -15 3 -14 10 -23 15 -20 5 3
7 9 4 14 -3 4 3 7 12 6 9 0 18 5 20 12 3 9 -1 12 -13 10 -29 -5 -30 56 -2 82
20 18 24 19 34 5 16 -21 37 -19 31 4 -3 12 1 18 11 17 8 0 17 5 20 13 3 9 -1
11 -16 7 -35 -11 -34 11 2 33 43 27 50 26 42 -4 -6 -23 -5 -24 19 -13 25 11
36 40 13 36 -7 -2 -14 7 -16 20 -2 12 -10 22 -18 22 -18 0 -18 9 3 32 15 17
15 18 -9 16 -14 -1 -45 -22 -73 -49z m60 -8 c6 -11 -33 -36 -42 -27 -3 3 -3
12 0 21 7 17 33 20 42 6z"/>
<path d="M11626 2364 c-8 -20 0 -32 14 -18 5 5 5 15 1 22 -6 11 -10 10 -15 -4z"/>
<path d="M12125 2371 c-3 -5 -1 -12 5 -16 5 -3 10 1 10 9 0 18 -6 21 -15 7z"/>
<path d="M11756 2352 c-2 -4 2 -16 10 -27 13 -18 14 -18 14 8 0 25 -13 36 -24
19z"/>
<path d="M11636 2321 c-4 -5 -2 -12 3 -15 5 -4 12 -2 15 3 4 5 2 12 -3 15 -5
4 -12 2 -15 -3z"/>
<path d="M11868 2309 c-19 -11 -25 -39 -8 -39 6 0 13 7 16 15 4 8 12 15 20 15
8 0 14 5 14 10 0 13 -20 12 -42 -1z"/>
<path d="M11765 2291 c-3 -5 -1 -12 4 -15 12 -8 41 3 41 15 0 12 -37 12 -45 0z"/>
<path d="M11646 2259 c-19 -19 -19 -19 1 -19 12 0 23 8 26 20 6 25 -2 25 -27
-1z"/>
<path d="M11880 2251 c-15 -30 -12 -33 15 -15 28 18 33 34 10 34 -8 0 -19 -9
-25 -19z"/>
<path d="M11145 2250 c-3 -5 1 -10 10 -10 9 0 13 5 10 10 -3 6 -8 10 -10 10
-2 0 -7 -4 -10 -10z"/>
<path d="M11788 2236 c-21 -15 -23 -26 -5 -26 22 0 43 18 32 29 -7 6 -16 5
-27 -3z"/>
<path d="M12105 2220 c-3 -5 -1 -10 4 -10 6 0 11 5 11 10 0 6 -2 10 -4 10 -3
0 -8 -4 -11 -10z"/>
<path d="M11670 2210 c0 -5 7 -10 15 -10 8 0 15 5 15 10 0 6 -7 10 -15 10 -8
0 -15 -4 -15 -10z"/>
<path d="M11815 2200 c-3 -5 -2 -10 4 -10 5 0 13 5 16 10 3 6 2 10 -4 10 -5 0
-13 -4 -16 -10z"/>
<path d="M12126 2185 c-3 -8 -1 -15 4 -15 6 0 10 7 10 15 0 8 -2 15 -4 15 -2
0 -6 -7 -10 -15z"/>
<path d="M11960 2181 c0 -6 5 -13 10 -16 6 -3 10 1 10 9 0 9 -4 16 -10 16 -5
0 -10 -4 -10 -9z"/>
<path d="M11682 2161 c4 -13 18 -16 19 -4 0 4 -5 9 -11 12 -7 2 -11 -2 -8 -8z"/>
<path d="M11815 2130 c-3 -5 -1 -10 4 -10 6 0 11 5 11 10 0 6 -2 10 -4 10 -3
0 -8 -4 -11 -10z"/>
<path d="M12056 2123 c-6 -14 -5 -15 5 -6 7 7 10 15 7 18 -3 3 -9 -2 -12 -12z"/>
<path d="M11850 2100 c0 -5 5 -10 10 -10 6 0 10 5 10 10 0 6 -4 10 -10 10 -5
0 -10 -4 -10 -10z"/>
<path d="M12096 2094 c-5 -14 -4 -15 9 -4 17 14 19 20 6 20 -5 0 -12 -7 -15
-16z"/>
<path d="M12015 2080 c-3 -5 1 -10 10 -10 9 0 13 5 10 10 -3 6 -8 10 -10 10
-2 0 -7 -4 -10 -10z"/>
<path d="M11975 2071 c-3 -5 -1 -12 4 -15 5 -3 11 1 15 9 6 16 -9 21 -19 6z"/>
<path d="M11877 2064 c-4 -4 -7 -14 -7 -23 0 -11 3 -12 11 -4 6 6 10 16 7 23
-2 6 -7 8 -11 4z"/>
<path d="M12025 2040 c-4 -6 -2 -17 4 -23 15 -15 25 -2 13 19 -7 12 -11 13
-17 4z"/>
<path d="M11902 2010 c0 -14 2 -19 5 -12 2 6 2 18 0 25 -3 6 -5 1 -5 -13z"/>
<path d="M12028 1989 c-21 -12 -24 -29 -4 -29 7 0 16 9 19 20 3 11 4 20 4 20
-1 0 -10 -5 -19 -11z"/>
<path d="M11930 1969 c0 -5 5 -7 10 -4 6 3 10 8 10 11 0 2 -4 4 -10 4 -5 0
-10 -5 -10 -11z"/>
<path d="M12100 1921 c0 -12 5 -21 10 -21 6 0 10 6 10 14 0 8 -4 18 -10 21 -5
3 -10 -3 -10 -14z"/>
<path d="M11950 1919 c0 -5 5 -7 10 -4 6 3 10 8 10 11 0 2 -4 4 -10 4 -5 0
-10 -5 -10 -11z"/>
<path d="M11980 1880 c0 -5 5 -10 10 -10 6 0 10 5 10 10 0 6 -4 10 -10 10 -5
0 -10 -4 -10 -10z"/>
<path d="M12116 1854 c-17 -12 -17 -14 -4 -14 9 0 20 5 23 11 11 17 2 18 -19
3z"/>
<path d="M12020 1849 c0 -5 5 -7 10 -4 6 3 10 8 10 11 0 2 -4 4 -10 4 -5 0
-10 -5 -10 -11z"/>
<path d="M12035 1810 c-3 -5 -1 -10 4 -10 6 0 11 5 11 10 0 6 -2 10 -4 10 -3
0 -8 -4 -11 -10z"/>
<path d="M12071 1754 c0 -11 3 -14 6 -6 3 7 2 16 -1 19 -3 4 -6 -2 -5 -13z"/>
<path d="M12111 1724 c0 -11 3 -14 6 -6 3 7 2 16 -1 19 -3 4 -6 -2 -5 -13z"/>
<path d="M5412 18 c3 -9 33 -14 94 -15 l89 -1 -75 13 c-97 17 -113 18 -108 3z"/>
</g>
</svg>
